<svg width="50" height="50" viewBox="0 0 50 50" fill="none" xmlns="http://www.w3.org/2000/svg">
<g clip-path="url(#clip0_203_10222)">
<g clip-path="url(#clip1_203_10222)">
<path d="M24.7873 50C18.1634 50 11.9697 47.4225 7.26291 42.6766C6.61158 42.0198 6.61158 40.9665 7.26291 40.3098C7.91423 39.653 8.95881 39.653 9.61014 40.3098C13.8499 44.5849 19.5029 46.8525 25.5 46.6419C36.7569 46.2825 45.8878 37.1004 46.2687 25.7497C46.367 22.8872 45.9246 20.0991 44.9415 17.4597C44.622 16.5923 45.0644 15.6382 45.9123 15.316C46.7726 14.9938 47.7188 15.4399 48.0384 16.2949C49.169 19.3556 49.6851 22.565 49.5622 25.8612C49.1198 38.9715 38.6003 49.5663 25.5861 49.9876C25.328 50 25.0576 50 24.7873 50Z" fill="url(#paint0_linear_203_10222)"/>
<path d="M3.09649 34.7956C2.42059 34.7956 1.79384 34.3743 1.54806 33.7051C0.417453 30.6444 -0.0864028 27.435 0.0241997 24.1388C0.454321 11.0285 10.9861 0.433753 23.9881 0.0124392C30.9192 -0.210609 37.4324 2.37923 42.3358 7.32347C42.9871 7.98022 42.9871 9.0335 42.3358 9.69026C41.6845 10.347 40.6399 10.347 39.9886 9.69026C35.7488 5.40277 30.0958 3.14751 24.0864 3.35816C12.8295 3.71752 3.69866 12.8997 3.3177 24.2504C3.21938 27.1128 3.67408 29.9009 4.64493 32.5403C4.96444 33.4077 4.52203 34.3619 3.66179 34.6841C3.48974 34.7584 3.29312 34.7956 3.09649 34.7956Z" fill="#FF1D25"/>
<path d="M25.5 46.6542C19.5029 46.8649 13.8499 44.5972 9.61014 40.3222C8.95881 39.6654 7.91423 39.6654 7.26291 40.3222C6.61158 40.9789 6.61158 42.0322 7.26291 42.6889C11.9697 47.4349 18.1634 50.0124 24.7873 50.0124C25.0576 50.0124 25.3403 50.0124 25.6106 50C25.6475 50 25.6721 50 25.7089 50C25.7335 48.8971 25.7704 47.7943 25.7827 46.6542C25.6844 46.6419 25.5983 46.6419 25.5 46.6542Z" fill="url(#paint1_linear_203_10222)"/>
<path d="M42.3239 7.32341C37.6049 2.55266 31.362 -0.0123982 24.7012 0.0123849C24.7381 1.10284 24.8118 2.23048 24.8979 3.34572C30.6 3.35811 35.9335 5.60099 39.9767 9.69021C40.628 10.347 41.6726 10.347 42.3239 9.69021C42.9752 9.03345 42.9752 7.98017 42.3239 7.32341Z" fill="url(#paint2_linear_203_10222)"/>
<path d="M45.9 42.2552L39.3991 35.7001C38.207 37.6827 36.6463 39.1573 34.8398 40.2973L41.4145 46.9268C42.7786 48.3023 45.0767 48.1908 46.281 46.5675C47.2518 45.254 47.0429 43.4076 45.9 42.2552Z" fill="#0F9DFF"/>
<path d="M39.3991 35.7002L36.806 33.0855C35.6632 31.9331 33.8321 31.7225 32.5417 32.7014C30.9318 33.9158 30.8089 36.233 32.1853 37.6085L34.8521 40.2974C36.6463 39.1574 38.207 37.6828 39.3991 35.7002Z" fill="#02497F"/>
<path d="M13.9728 42.9244C13.9728 44.399 13.1863 45.7001 12.0065 46.3941C11.4044 46.7534 10.7162 46.9517 9.96653 46.9517C7.75448 46.9517 5.96027 45.1425 5.96027 42.912C5.96027 42.1561 6.15689 41.4622 6.51328 40.8674C7.21376 39.6778 8.49183 38.8848 9.95424 38.8848C12.1909 38.8848 13.9728 40.6939 13.9728 42.9244Z" fill="#FFBB00"/>
<path d="M12.5718 44.3371C12.5718 44.3619 12.5718 44.3743 12.5718 44.399C12.5472 45.7745 11.4289 46.9145 10.0648 46.9517C10.0525 46.9517 10.028 46.9517 10.0157 46.9517C7.80362 46.9641 5.96025 45.1054 5.97253 42.8997C5.97253 42.8873 5.97253 42.8625 5.97253 42.8501C5.99711 41.4746 7.12772 40.3346 8.5041 40.3222C8.52868 40.3222 8.54097 40.3222 8.56555 40.3222C10.7776 40.3098 12.5718 42.119 12.5718 44.3371Z" fill="#FFBB00"/>
<path d="M24.7995 29.0459C27.0121 29.0459 28.8058 27.2372 28.8058 25.0062C28.8058 22.7752 27.0121 20.9666 24.7995 20.9666C22.5869 20.9666 20.7933 22.7752 20.7933 25.0062C20.7933 27.2372 22.5869 29.0459 24.7995 29.0459Z" fill="#74CC17"/>
<path d="M44.0075 7.42259C44.0075 8.86001 43.2579 10.1239 42.1273 10.8427C41.5128 11.2268 40.7755 11.4622 40.0013 11.4622C37.7892 11.4622 35.995 9.65307 35.995 7.42259C35.995 6.64192 36.2162 5.89842 36.5972 5.27884C37.3099 4.13882 38.5634 3.38293 39.989 3.38293C42.2133 3.38293 44.0075 5.1921 44.0075 7.42259Z" fill="#FF3E03"/>
<path opacity="0.23" d="M13.3706 41.2764C13.4689 41.611 13.4935 41.9455 13.4567 42.2677C13.3706 42.974 12.793 43.5441 12.068 43.6308C11.8099 43.6556 11.5395 43.6556 11.2569 43.606C10.2983 43.4201 9.52412 42.6766 9.32749 41.7349C9.26605 41.4251 9.25376 41.1277 9.30291 40.8427C9.40123 40.1611 9.97882 39.6407 10.667 39.554C10.9865 39.5168 11.3306 39.5416 11.6747 39.6283C12.4858 39.839 13.1494 40.4709 13.3706 41.2764Z" fill="#FFEA0A"/>
<path d="M28.2159 23.2589C28.3142 23.5935 28.3388 23.9281 28.3019 24.2503C28.2159 24.9566 27.6383 25.5266 26.9133 25.6133C26.6552 25.6381 26.3848 25.6381 26.1022 25.5885C25.1436 25.4027 24.3694 24.6592 24.1728 23.7174C24.1113 23.4076 24.099 23.1102 24.1482 22.8252C24.2465 22.1437 24.8241 21.6232 25.5123 21.5365C25.8318 21.4993 26.1759 21.5241 26.52 21.6109C27.3311 21.8215 27.9824 22.4535 28.2159 23.2589Z" fill="#86D137"/>
<path opacity="0.24" d="M43.3808 5.60097C43.4791 5.93555 43.5037 6.27012 43.4668 6.5923C43.3808 7.29862 42.8032 7.86863 42.0781 7.95537C41.82 7.98016 41.5497 7.98016 41.267 7.93059C40.3085 7.74472 39.5343 7.00122 39.3376 6.05946C39.2762 5.74967 39.2639 5.45228 39.313 5.16727C39.4114 4.48573 39.989 3.96529 40.6771 3.87855C40.9967 3.84137 41.3408 3.86615 41.6849 3.95289C42.4959 4.17594 43.1596 4.80791 43.3808 5.60097Z" fill="#FC9424"/>
<path d="M45.9 42.2553L39.3991 35.7002L36.806 33.0855C35.6632 31.9331 33.8321 31.7225 32.5417 32.7014C30.9318 33.9158 30.8089 36.233 32.1853 37.6085L34.8521 40.2974L41.4268 46.9269C42.7909 48.3024 45.0889 48.1909 46.2933 46.5552C47.2518 45.2541 47.0429 43.4077 45.9 42.2553Z" fill="url(#paint3_linear_203_10222)"/>
<path d="M25.6352 33.1845C23.0545 33.4448 20.6827 32.4906 19.036 30.8177L14.6241 35.2663C17.0697 37.7322 20.3878 39.3308 24.0499 39.5166C28.3266 39.7397 32.2222 38.0792 34.9873 35.2787L30.5632 30.8177C29.2605 32.1189 27.5401 32.9987 25.6352 33.1845Z" fill="#66C1FF"/>
<path d="M34.975 14.7335L30.5632 19.1821C32.2222 20.855 33.1685 23.2341 32.9104 25.8364C32.7261 27.7571 31.8535 29.5043 30.5632 30.8178L34.9873 35.2787C37.7523 32.4906 39.4114 28.5625 39.1902 24.2502C39.0058 20.5576 37.4205 17.2118 34.975 14.7335Z" fill="#0F9DFF"/>
<path d="M16.6764 24.1636C16.8607 22.2429 17.7333 20.4957 19.0236 19.1822L14.5995 14.7212C11.8345 17.5093 10.1754 21.4374 10.3966 25.7497C10.581 29.4424 12.1663 32.7881 14.6118 35.254L19.0236 30.8055C17.3646 29.145 16.4183 26.7658 16.6764 24.1636Z" fill="#A0D8FF"/>
<path d="M25.5492 10.4832C21.2725 10.2602 17.3769 11.9206 14.6118 14.7211L19.0359 19.1821C20.3386 17.8686 22.0591 17.0012 23.9639 16.8153C26.5446 16.5551 28.9164 17.5092 30.5632 19.1821L34.975 14.7335C32.5294 12.2676 29.2113 10.6815 25.5492 10.4832Z" fill="#7FCBFF"/>
<path d="M39.1902 24.2503C39.0059 20.5576 37.4206 17.2119 34.975 14.746C32.5295 12.2801 29.2114 10.6815 25.5492 10.4957C21.2726 10.2726 17.3769 11.9331 14.6119 14.7336C11.8468 17.5217 10.1878 21.4498 10.409 25.7621C10.5933 29.4548 12.1786 32.8005 14.6241 35.2664C17.0697 37.7323 20.3878 39.3309 24.0499 39.5167C28.3266 39.7398 32.2222 38.0793 34.9873 35.2788C37.7524 32.4783 39.4114 28.5626 39.1902 24.2503ZM25.6352 33.1846C23.0545 33.4449 20.6827 32.4907 19.036 30.8179C17.3769 29.145 16.4307 26.7658 16.6887 24.1636C16.8731 22.2429 17.7456 20.4957 19.036 19.1822C20.3386 17.8687 22.0591 17.0012 23.9639 16.8154C26.5446 16.5552 28.9164 17.5093 30.5632 19.1822C32.2222 20.855 33.1685 23.2342 32.9104 25.8364C32.7261 27.7571 31.8536 29.5043 30.5632 30.8179C29.2605 32.119 27.5401 32.9988 25.6352 33.1846Z" fill="url(#paint4_linear_203_10222)"/>
<path d="M39.1902 24.2503C39.0059 20.5576 37.4206 17.2119 34.975 14.746C32.5295 12.2801 29.2114 10.6815 25.5492 10.4957C21.2726 10.2726 17.3769 11.9331 14.6119 14.7336C11.8468 17.5217 10.1878 21.4498 10.409 25.7621C10.5933 29.4548 12.1786 32.8005 14.6241 35.2664C17.0697 37.7323 20.3878 39.3309 24.0499 39.5167C28.3266 39.7398 32.2222 38.0793 34.9873 35.2788C37.7524 32.4783 39.4114 28.5626 39.1902 24.2503ZM26.1637 38.4758C21.9116 38.8972 18.016 37.3234 15.2878 34.5725C12.5596 31.8216 10.9988 27.8934 11.4167 23.606C11.7239 20.4337 13.1494 17.5713 15.2878 15.4151C17.4261 13.259 20.2649 11.8216 23.4109 11.5118C27.663 11.0905 31.5586 12.6642 34.2868 15.4151C37.015 18.1661 38.5757 22.0942 38.1579 26.3693C37.8507 29.5415 36.4251 32.404 34.2868 34.5601C32.1485 36.7286 29.3097 38.1661 26.1637 38.4758Z" fill="url(#paint5_linear_203_10222)"/>
</g>
</g>
<defs>
<linearGradient id="paint0_linear_203_10222" x1="6.77703" y1="32.6053" x2="49.5912" y2="32.6053" gradientUnits="userSpaceOnUse">
<stop offset="0.0044779" stop-color="#FCC21F"/>
<stop offset="0.3518" stop-color="#FCC31A"/>
<stop offset="0.7641" stop-color="#FEC50C"/>
<stop offset="0.9988" stop-color="#FFC600"/>
</linearGradient>
<linearGradient id="paint1_linear_203_10222" x1="10.5319" y1="43.0291" x2="17.6718" y2="46.0812" gradientUnits="userSpaceOnUse">
<stop offset="0.0044779" stop-color="#F7931E"/>
<stop offset="0.1962" stop-color="#F7981D" stop-opacity="0.8072"/>
<stop offset="0.4243" stop-color="#F9A61A" stop-opacity="0.5778"/>
<stop offset="0.6709" stop-color="#FBBE14" stop-opacity="0.3298"/>
<stop offset="0.9289" stop-color="#FEE00C" stop-opacity="0.0703042"/>
<stop offset="0.9988" stop-color="#FFEA0A" stop-opacity="0"/>
</linearGradient>
<linearGradient id="paint2_linear_203_10222" x1="39.5815" y1="6.8365" x2="29.0369" y2="2.69469" gradientUnits="userSpaceOnUse">
<stop offset="0.0044779" stop-color="#941114"/>
<stop offset="0.9988" stop-color="#FF1D25" stop-opacity="0"/>
</linearGradient>
<linearGradient id="paint3_linear_203_10222" x1="33.4414" y1="34.99" x2="47.6016" y2="47.3162" gradientUnits="userSpaceOnUse">
<stop stop-color="#02497F"/>
<stop offset="0.1351" stop-color="#1D69A1" stop-opacity="0.8649"/>
<stop offset="0.2982" stop-color="#3789C3" stop-opacity="0.7018"/>
<stop offset="0.4653" stop-color="#4CA1DD" stop-opacity="0.5347"/>
<stop offset="0.6356" stop-color="#5BB3F0" stop-opacity="0.3644"/>
<stop offset="0.8112" stop-color="#64BEFB" stop-opacity="0.1888"/>
<stop offset="1" stop-color="#67C1FF" stop-opacity="0"/>
</linearGradient>
<linearGradient id="paint4_linear_203_10222" x1="41.6555" y1="42.756" x2="16.5144" y2="16.7172" gradientUnits="userSpaceOnUse">
<stop stop-color="#0F9DFF" stop-opacity="0.4"/>
<stop offset="1" stop-color="white" stop-opacity="0.2"/>
</linearGradient>
<linearGradient id="paint5_linear_203_10222" x1="41.6555" y1="42.756" x2="16.5144" y2="16.7172" gradientUnits="userSpaceOnUse">
<stop stop-color="#02497F" stop-opacity="0.4"/>
<stop offset="1" stop-color="white" stop-opacity="0.2"/>
</linearGradient>
<clipPath id="clip0_203_10222">
<rect width="49.5868" height="50" fill="white"/>
</clipPath>
<clipPath id="clip1_203_10222">
<rect width="49.5868" height="50" fill="white"/>
</clipPath>
</defs>
</svg>
