<svg width="256" height="256" viewBox="0 0 256 256" fill="none" xmlns="http://www.w3.org/2000/svg">
<g clip-path="url(#clip0_2858_34)">
<mask id="mask0_2858_34" style="mask-type:luminance" maskUnits="userSpaceOnUse" x="0" y="0" width="256" height="256">
<path d="M256 0H0V256H256V0Z" fill="white"/>
</mask>
<g mask="url(#mask0_2858_34)">
<path d="M256 0H0V256H256V0Z" fill="black"/>
<path d="M206.942 90.1404C204.618 87.8165 201.554 86.6901 198.511 86.7413H198.454C189.275 86.7413 181.899 79.3031 181.899 70.1241V70.1155C181.934 67.0947 180.804 64.0626 178.497 61.7557C176.262 59.52 173.34 58.3879 170.411 58.3538H77.0702C74.1376 58.3879 71.2192 59.52 68.9834 61.7557C66.6766 64.0597 65.5474 67.0947 65.5815 70.1155L65.5786 70.1127C65.5786 79.2917 58.1376 86.7328 48.9586 86.7328L48.9699 86.747C45.9264 86.693 42.8629 87.8194 40.539 90.1461C38.2634 92.4217 37.1285 95.4055 37.1314 98.3893V128.245C37.1285 131.228 38.2634 134.209 40.539 136.485C42.8629 138.809 45.9264 139.935 48.9699 139.884H48.9785C58.1376 139.884 65.5502 147.294 65.5815 156.444V186.749C65.5815 190.618 70.454 192.327 72.869 189.306L89.6938 168.274H170.413C173.346 168.24 176.265 167.108 178.5 164.873C180.804 162.569 181.936 159.536 181.902 156.513V156.496C181.902 147.317 189.312 139.884 198.494 139.884H198.517C201.56 139.938 204.624 138.809 206.948 136.485C209.223 134.209 210.358 131.226 210.355 128.242V98.3865C210.352 95.4027 209.217 92.4188 206.942 90.1404ZM187.096 128.563C186.999 137.66 179.604 145.007 170.485 145.007L170.496 145.018C170.47 145.018 170.442 145.015 170.413 145.015V145.01L76.9962 145.007C67.877 145.007 60.4814 137.66 60.3847 128.563C60.3875 128.455 60.3875 98.1674 60.3847 98.0622C60.4814 88.9657 67.877 81.6185 76.9962 81.6185L170.413 81.6156V81.6099C170.442 81.6099 170.468 81.6071 170.496 81.6071L170.485 81.6185C179.604 81.6185 186.999 88.9657 187.096 98.0622C187.093 98.1703 187.093 128.458 187.096 128.563Z" fill="white"/>
<path d="M97.9228 95.8236C91.483 95.8236 86.2634 101.043 86.2634 107.483V119.142C86.2634 125.582 91.483 130.802 97.9228 130.802C104.363 130.802 109.582 125.582 109.582 119.142V107.483C109.582 101.043 104.363 95.8236 97.9228 95.8236Z" fill="white"/>
<path d="M149.555 95.8236C143.115 95.8236 137.896 101.043 137.896 107.483V119.142C137.896 125.582 143.115 130.802 149.555 130.802C155.995 130.802 161.215 125.582 161.215 119.142V107.483C161.217 101.043 155.995 95.8236 149.555 95.8236Z" fill="white"/>
<path d="M96.9302 219.426L113.277 198.997H193.912H193.997C196.929 198.963 199.848 197.831 202.084 195.595C204.388 193.291 205.52 190.259 205.486 187.236C205.477 178.082 212.873 170.647 222.026 170.607H222.1C225.144 170.661 228.207 169.535 230.531 167.208C232.806 164.932 233.941 161.948 233.939 158.965V129.485C233.939 126.672 233.011 123.932 231.299 121.7L228.033 117.441V151.282C228.036 154.266 226.901 157.247 224.626 159.525C222.302 161.849 219.238 162.975 216.195 162.924H216.121C206.968 162.964 199.572 170.399 199.583 179.553C199.617 182.574 198.488 185.606 196.181 187.913C193.946 190.148 191.024 191.278 188.095 191.314H188.009H107.372L89.5858 213.558C88.2347 215.248 88.212 217.643 89.5318 219.358C91.3921 221.773 95.0244 221.807 96.9302 219.426Z" fill="url(#paint0_linear_2858_34)"/>
<path d="M78.1739 197.695L95.562 175.952H176.282C179.214 175.918 182.133 174.785 184.368 172.55C186.672 170.243 187.805 167.211 187.77 164.19V164.173C187.762 155.031 195.149 147.601 204.294 147.561H204.385C207.428 147.615 210.492 146.486 212.816 144.162C215.091 141.887 216.226 138.903 216.223 135.922V102.053L220.496 107.622C222.211 109.858 223.141 112.597 223.141 115.416V144.885C223.144 147.868 222.009 150.849 219.733 153.128C217.409 155.452 214.346 156.578 211.302 156.527H211.229C202.075 156.567 194.68 164.005 194.691 173.156C194.725 176.176 193.596 179.209 191.289 181.515C189.053 183.751 186.132 184.88 183.202 184.917H102.483L86.767 204.567C84.537 207.354 80.2845 207.312 78.1114 204.481C76.5668 202.47 76.5953 199.669 78.1739 197.695Z" fill="url(#paint1_linear_2858_34)"/>
</g>
</g>
<defs>
<linearGradient id="paint0_linear_2858_34" x1="272.35" y1="109.009" x2="90.3058" y2="239.853" gradientUnits="userSpaceOnUse">
<stop stop-color="#46A6F7"/>
<stop offset="1" stop-color="#8364FF"/>
</linearGradient>
<linearGradient id="paint1_linear_2858_34" x1="77.4332" y1="226.551" x2="236.722" y2="111.351" gradientUnits="userSpaceOnUse">
<stop stop-color="#FF44D3"/>
<stop offset="1" stop-color="#CF4BFF"/>
</linearGradient>
<clipPath id="clip0_2858_34">
<rect width="256" height="256" rx="85.3333" fill="white"/>
</clipPath>
</defs>
</svg>
