<?xml version="1.0" encoding="UTF-8"?><svg id="a" xmlns="http://www.w3.org/2000/svg" xmlns:xlink="http://www.w3.org/1999/xlink" viewBox="0 0 2000 2000"><defs><style>.e{fill:#1088ff;}.e,.f,.g,.h{stroke-width:0px;}.f{fill:#fff;}.g{fill:url(#c);}.h{fill:url(#d);}</style><linearGradient id="c" x1="580.32" y1="1402.73" x2="580.32" y2="888.06" gradientUnits="userSpaceOnUse"><stop offset="0" stop-color="#00004c" stop-opacity=".8"/><stop offset=".19" stop-color="rgba(0,0,76,.55)" stop-opacity=".55"/><stop offset=".55" stop-color="rgba(0,0,76,.15)" stop-opacity=".15"/><stop offset=".75" stop-color="#00004c" stop-opacity="0"/></linearGradient><linearGradient id="d" x1="1126.71" y1="798.7" x2="1641.38" y2="798.7" xlink:href="#c"/></defs><g id="b"><rect class="e" x="195.31" y="195.31" width="1609.38" height="1609.38" rx="365" ry="365"/><path class="f" d="M672.63,1346.41l128.01-219.63c-30.85-48.36-69.53-91.23-114.28-126.84-87.89,69.96-205.54,111.59-326.36,111.59h0c160.58,0,297.28,130.62,297.28,291.2h.23c-.02-19.16,4.78-38.57,15.12-56.32Z"/><path class="g" d="M672.63,1346.41l128.01-219.63c-30.85-48.36-69.53-91.23-114.28-126.84-87.89,69.96-205.54,111.59-326.36,111.59h0c160.58,0,297.28,130.62,297.28,291.2h.23c-.02-19.16,4.78-38.57,15.12-56.32Z"/><path class="f" d="M1640,888.43c-159.68-.75-289.59-131.27-289.59-291.12h0c.02,19.16-4.78,38.57-15.12,56.32l-128.01,219.63c30.85,48.36,69.53,91.23,114.28,126.83,87.55-69.69,198.17-111.34,318.44-111.66h0Z"/><path class="h" d="M1640,888.43c-159.68-.75-289.59-131.27-289.59-291.12h0c.02,19.16-4.78,38.57-15.12,56.32l-128.01,219.63c30.85,48.36,69.53,91.23,114.28,126.83,87.55-69.69,198.17-111.34,318.44-111.66h0Z"/><path class="f" d="M881.07,597.31c0-61.77-50.06-111.84-111.83-111.84s-111.83,50.07-111.83,111.84c0,159.86-129.66,289.94-289.35,290.79-.52,0-1.02.08-1.55.08-1.95,0-3.85.19-5.78.29l-.75,223.06h0c120.81,0,238.47-41.63,326.36-111.59,118.53-94.35,194.72-239.71,194.72-402.63Z"/><path class="f" d="M1321.56,1000.09c-118.52,94.35-194.71,239.72-194.71,402.64,0,61.62,49.83,111.58,111.39,111.82h.87c61.56-.24,111.39-50.2,111.39-111.82,0-159.68,129.35-289.61,288.75-290.77l.75-223.53c-120.27.32-230.89,41.96-318.44,111.66Z"/><path class="f" d="M1350.41,597.31c-.04-38.45-19.81-75.86-55.42-96.63-53.38-31.1-121.83-13.05-152.93,40.31l-341.42,585.78-128.01,219.63c-10.34,17.75-15.14,37.16-15.12,56.32.04,38.45,19.81,75.86,55.42,96.63,17.52,10.21,36.65,15.08,55.57,15.19h1.29c38.25-.22,75.41-20.06,96.07-55.5l341.42-585.78,128.01-219.63c10.34-17.75,15.14-37.16,15.12-56.32Z"/></g></svg>